<?xml version="1.0" standalone="no"?>
<!DOCTYPE svg PUBLIC "-//W3C//DTD SVG 20010904//EN"
 "http://www.w3.org/TR/2001/REC-SVG-20010904/DTD/svg10.dtd">
<svg version="1.0" xmlns="http://www.w3.org/2000/svg"
 width="640.000000pt" height="640.000000pt" viewBox="0 0 640.000000 640.000000"
 preserveAspectRatio="xMidYMid meet">

<g transform="translate(0.000000,640.000000) scale(0.100000,-0.100000)"
fill="#000000" stroke="none">
<path d="M850 4053 c-209 -35 -343 -187 -402 -458 -29 -132 -37 -487 -14 -644
40 -268 125 -413 291 -492 127 -60 297 -62 421 -5 71 33 164 122 202 194 78
149 106 306 106 587 0 229 -13 336 -60 477 -43 131 -134 247 -234 298 -76 39
-217 59 -310 43z m178 -281 c38 -28 68 -89 89 -183 21 -95 25 -564 5 -676 -29
-168 -76 -233 -175 -241 -91 -7 -150 51 -183 180 -17 63 -19 113 -19 378 0
399 17 482 115 548 44 30 121 27 168 -6z"/>
<path d="M2100 4053 c-209 -35 -343 -187 -402 -458 -29 -132 -37 -487 -14
-644 40 -268 125 -413 291 -492 127 -60 297 -62 421 -5 71 33 164 122 202 194
78 149 106 306 106 587 0 229 -13 336 -60 477 -43 131 -134 247 -234 298 -76
39 -217 59 -310 43z m178 -281 c38 -28 68 -89 89 -183 21 -95 25 -564 5 -676
-29 -168 -76 -233 -175 -241 -91 -7 -150 51 -183 180 -17 63 -19 113 -19 378
0 399 17 482 115 548 44 30 121 27 168 -6z"/>
<path d="M5283 4045 c-84 -18 -176 -69 -238 -130 -200 -201 -204 -583 -7 -784
163 -166 407 -185 571 -45 l42 37 -6 -64 c-10 -89 -33 -201 -51 -244 -20 -48
-82 -115 -121 -132 -104 -43 -217 14 -244 123 -11 41 -14 45 -38 40 -14 -3
-79 -11 -143 -17 -136 -14 -134 -11 -97 -121 57 -171 170 -264 351 -291 164
-24 332 28 448 139 133 127 188 273 210 556 20 259 -18 520 -97 670 -111 211
-340 315 -580 263z m198 -268 c96 -51 144 -159 137 -307 -3 -68 -10 -98 -29
-136 -77 -150 -284 -151 -359 -3 -61 118 -40 353 36 420 62 54 143 63 215 26z"/>
<path d="M3865 4018 c-10 -33 -154 -832 -150 -836 2 -3 57 -13 122 -23 l117
-18 38 34 c79 72 184 100 276 75 62 -16 127 -79 149 -143 23 -70 23 -203 -1
-276 -22 -65 -85 -133 -141 -151 -56 -19 -136 -8 -185 24 -49 32 -98 106 -107
159 -6 37 -7 38 -37 33 -17 -3 -86 -10 -153 -17 l-122 -12 6 -31 c46 -248 224
-405 481 -422 209 -14 380 66 490 229 68 103 92 178 99 307 9 177 -33 302
-141 417 -128 138 -317 185 -493 123 -31 -11 -58 -19 -59 -17 -2 2 32 208 41
245 l5 22 290 0 290 0 0 145 0 145 -405 0 c-316 0 -407 -3 -410 -12z"/>
<path d="M3040 3455 l0 -155 155 0 155 0 0 155 0 155 -155 0 -155 0 0 -155z"/>
<path d="M3040 2595 l0 -155 155 0 155 0 0 155 0 155 -155 0 -155 0 0 -155z"/>
</g>
</svg>
