<?xml version="1.0" standalone="no"?>
<!DOCTYPE svg PUBLIC "-//W3C//DTD SVG 20010904//EN"
 "http://www.w3.org/TR/2001/REC-SVG-20010904/DTD/svg10.dtd">
<svg version="1.0" xmlns="http://www.w3.org/2000/svg"
 width="512.000000pt" height="512.000000pt" viewBox="0 0 512.000000 512.000000"
 preserveAspectRatio="xMidYMid meet">

<g transform="translate(0.000000,512.000000) scale(0.100000,-0.100000)"
fill="#000000" stroke="none">
<path d="M2285 4859 c-308 -42 -608 -142 -865 -289 -636 -365 -1054 -1004
-1141 -1743 -7 -61 -9 -182 -6 -315 4 -177 9 -242 30 -352 91 -475 302 -876
637 -1210 337 -338 744 -550 1230 -641 112 -21 154 -24 395 -24 241 0 283 3
395 24 486 91 893 303 1230 641 338 337 550 744 641 1230 21 112 24 154 24
395 0 241 -3 283 -24 395 -91 486 -303 893 -641 1230 -334 335 -734 545 -1210
637 -119 23 -165 26 -380 29 -135 1 -276 -2 -315 -7z"/>
</g>
</svg>
