<?xml version="1.0" standalone="no"?>
<!DOCTYPE svg PUBLIC "-//W3C//DTD SVG 20010904//EN"
 "http://www.w3.org/TR/2001/REC-SVG-20010904/DTD/svg10.dtd">
<svg version="1.0" xmlns="http://www.w3.org/2000/svg"
 width="512.000000pt" height="512.000000pt" viewBox="0 0 512.000000 512.000000"
 preserveAspectRatio="xMidYMid meet">

<g transform="translate(0.000000,512.000000) scale(0.100000,-0.100000)"
fill="#000000" stroke="none">
<path d="M2287 5105 c-504 -82 -943 -361 -1227 -780 -145 -215 -245 -475 -285
-743 -20 -128 -19 -408 1 -560 13 -101 26 -164 79 -366 28 -111 116 -323 192
-466 151 -283 315 -506 674 -915 523 -596 658 -815 684 -1105 8 -85 22 -116
71 -149 29 -20 43 -23 94 -19 99 7 133 51 149 199 21 186 102 357 290 609 51
68 280 342 391 465 574 643 829 1098 932 1658 31 165 33 571 5 709 -22 111
-63 251 -87 303 -10 22 -43 93 -74 158 -30 64 -54 118 -53 120 0 1 -6 11 -16
22 -9 11 -40 55 -69 97 -134 195 -266 326 -463 460 -49 34 -93 66 -96 71 -3 5
-10 9 -15 10 -9 1 -215 96 -264 122 -39 20 -180 62 -287 86 -129 28 -490 36
-626 14z m499 -915 c283 -72 513 -283 620 -567 13 -35 26 -78 29 -95 3 -18 10
-60 16 -93 24 -131 -8 -334 -76 -482 -80 -175 -245 -347 -415 -433 -65 -33
-208 -79 -265 -87 -77 -9 -242 -4 -311 10 -349 73 -628 352 -701 701 -17 84
-18 302 -1 356 73 231 123 324 243 445 225 228 558 322 861 245z"/>
</g>
</svg>
