<svg id="Layer_1" data-name="Layer 1" xmlns="http://www.w3.org/2000/svg" viewBox="0 0 57.02 56.84"><defs><style>.cls-1,.cls-2,.cls-4,.cls-5{fill:none;stroke-miterlimit:10;}.cls-1,.cls-2,.cls-4{stroke:#000;}.cls-1{stroke-width:3px;}.cls-2{stroke-width:5px;}.cls-3{fill:#f4eded;}.cls-4{stroke-width:2px;}.cls-5{stroke:#fff;}</style></defs><title>lupa</title><circle class="cls-1" cx="37.28" cy="19.74" r="18.24"/><line class="cls-2" x1="24.29" y1="32.54" x2="1.77" y2="55.07"/><path class="cls-3" d="M17.52,36.32a2,2,0,0,1,0-2.87l1.2-1.19a2,2,0,0,1,2.87,0l3.11,3.1a2,2,0,0,1,0,2.87L23.5,39.39a2,2,0,0,1-2.87,0Z" transform="translate(0.14 -0.22)"/><path class="cls-4" d="M26.37,20A11.55,11.55,0,0,1,37.93,8.39" transform="translate(0.14 -0.22)"/><line class="cls-5" x1="3.04" y1="50.41" x2="6.42" y2="53.79"/><line class="cls-5" x1="4.55" y1="48.91" x2="7.93" y2="52.3"/></svg>