<svg id="Layer_1" data-name="Layer 1" xmlns="http://www.w3.org/2000/svg" viewBox="0 0 56.3 54.24"><defs><style>.cls-1{fill:#4285f4;}.cls-2{fill:none;stroke:#c9ecff;stroke-miterlimit:10;stroke-width:0.25px;}.cls-3{fill:#f8ffcc;}.cls-4{font-size:3.81px;font-family:MyriadPro-Regular, Myriad Pro;}.cls-5{fill:#ea4436;}.cls-6{fill:#efe1e1;}</style></defs><title>map-localization</title><polygon class="cls-1" points="52.46 9.92 56.17 54.13 39.85 47.02 35.6 6.69 52.46 9.92"/><polygon class="cls-1" points="35.6 6.69 39.85 47.02 18.73 53.23 17.8 52.77 15.02 12.4 14.94 12.36 35.6 6.69"/><polygon class="cls-1" points="14.94 12.36 15.02 12.4 17.8 52.77 0.28 44.22 0.13 6.46 14.94 12.36"/><polyline class="cls-2" points="0.13 6.46 14.94 12.36 15.02 12.4"/><polyline class="cls-2" points="14.88 12.38 14.94 12.36 35.6 6.69"/><line class="cls-2" x1="35.61" y1="6.69" x2="52.46" y2="9.92"/><line class="cls-2" x1="52.46" y1="9.92" x2="56.17" y2="54.13"/><line class="cls-2" x1="56.17" y1="54.13" x2="39.85" y2="47.02"/><line class="cls-2" x1="39.85" y1="47.02" x2="18.73" y2="53.23"/><polyline class="cls-2" points="18.73 53.23 17.8 52.77 0.28 44.22"/><line class="cls-2" x1="0.12" y1="6.46" x2="0.28" y2="44.22"/><polyline class="cls-2" points="15.02 12.4 17.8 52.77 17.8 52.83"/><line class="cls-2" x1="35.61" y1="6.69" x2="39.85" y2="47.02"/><path class="cls-3" d="M28,14.84a3.59,3.59,0,0,1,2.55,1.07,2.88,2.88,0,0,1,.27,2.66A5.28,5.28,0,0,1,30,20.25c-.86,1.08-2.14,1.81-2.9,3-.59.91-.88,2.08-1.75,2.74-4.23,3.22-5.12-4.76-4.88-7C20.82,15.18,24.57,14.55,28,14.84Z" transform="translate(-0.53 -1.44)"/><path class="cls-2" d="M28,14.84a3.59,3.59,0,0,1,2.55,1.07,2.88,2.88,0,0,1,.27,2.66A5.28,5.28,0,0,1,30,20.25c-.86,1.08-2.14,1.81-2.9,3-.59.91-.88,2.08-1.75,2.74-4.23,3.22-5.12-4.76-4.88-7C20.82,15.18,24.57,14.55,28,14.84Z" transform="translate(-0.53 -1.44)"/><path class="cls-3" d="M50.18,13.4a1.87,1.87,0,0,1,1.1,1.4,7,7,0,0,1-.1,4.14c-.92,2.69-3.47,4.73-3.81,7.55-.13,1.15,0,2.52-.85,3.25a3.2,3.2,0,0,1-1.19.53c-1.07.3-2.32.58-3.21-.08a3.25,3.25,0,0,1-.78-1,5.22,5.22,0,0,1-.76-3.59c.57-2.69,3.65-4.1,4.75-6.55C46,17.64,47.91,12.76,50.18,13.4Z" transform="translate(-0.53 -1.44)"/><path class="cls-3" d="M5,44.74c3.21.95,6.17-2.16,9.46-1.75,1.69-3.47-.35-4.35-3.41-4.59-1.87-.14-3-.52-4.26,1C6.48,39.77,4.62,44.61,5,44.74Z" transform="translate(-0.53 -1.44)"/><path class="cls-3" d="M26.21,35.77a10.29,10.29,0,0,0,.59-2.65A15,15,0,0,1,28,28.44a5.46,5.46,0,0,1,3.58-3,3.37,3.37,0,0,1,3.89,2.09,2.27,2.27,0,0,1-.13,1.68,5.84,5.84,0,0,1-.67.9,6.81,6.81,0,0,0-1.49,5.12c.24,2,1.32,3.74,1.63,5.7a7.31,7.31,0,0,1-7.71,8.39,2.49,2.49,0,0,1-1.85-.79c-1.13-1.51.05-3-2.13-3.79-1.38-.52-2.74.43-3.09-1.43-.24-1.29,1.21-2.59,2-3.29C23.68,38.66,25.32,37.89,26.21,35.77Z" transform="translate(-0.53 -1.44)"/><text class="cls-4" transform="translate(27.26 32.61)">x</text><path class="cls-5" d="M39.15,11.61a10.2,10.2,0,0,1-1.42,5.19H20.23a10.17,10.17,0,1,1,18.92-5.19Zm-7.13,0a3.16,3.16,0,1,0-3.16,3.16A3.16,3.16,0,0,0,32,11.61Z" transform="translate(-0.53 -1.44)"/><path class="cls-5" d="M37.74,16.8,29,32,20.22,16.8h0a10.2,10.2,0,0,0,7.33,4.88,1.69,1.69,0,0,0,2.84,0,10.2,10.2,0,0,0,7.33-4.88Z" transform="translate(-0.53 -1.44)"/><path class="cls-5" d="M20.23,16.8h17.5a10.2,10.2,0,0,1-7.33,4.88,1.72,1.72,0,0,0,.28-.92,1.7,1.7,0,1,0-3.4,0,1.64,1.64,0,0,0,.28.92A10.2,10.2,0,0,1,20.23,16.8Z" transform="translate(-0.53 -1.44)"/><path class="cls-6" d="M28.86,8.45a3.16,3.16,0,1,1-3.16,3.16A3.16,3.16,0,0,1,28.86,8.45Z" transform="translate(-0.53 -1.44)"/><path class="cls-5" d="M30.68,20.76a1.72,1.72,0,0,1-.28.92,10.13,10.13,0,0,1-2.84,0,1.64,1.64,0,0,1-.28-.92,1.7,1.7,0,1,1,3.4,0Z" transform="translate(-0.53 -1.44)"/><path class="cls-5" d="M30.4,21.68a1.69,1.69,0,0,1-2.84,0,10.13,10.13,0,0,0,2.84,0Z" transform="translate(-0.53 -1.44)"/></svg>