<svg id="Layer_1" data-name="Layer 1" xmlns="http://www.w3.org/2000/svg" viewBox="0 0 37.62 56.57"><defs><style>.cls-1{fill:#e4e5e9;}.cls-2{fill:none;stroke:#e4e5e9;stroke-miterlimit:10;}</style></defs><title>Untitled-1</title><path class="cls-1" d="M28.51,56.53,12.74,29.2h.69a18.31,18.31,0,0,0,30.14,0h.69Z" transform="translate(-9.69 0.03)"/><path class="cls-1" d="M43.57,29.2a18.31,18.31,0,0,1-30.14,0Z" transform="translate(-9.69 0.03)"/><path class="cls-1" d="M28.51,24.56a5.77,5.77,0,1,0-5.77-5.77A5.76,5.76,0,0,0,28.51,24.56ZM43.57,29.2H13.43a18.31,18.31,0,1,1,30.14,0Z" transform="translate(-9.69 0.03)"/><path class="cls-2" d="M13.43,29.2a18.31,18.31,0,1,1,15.08,7.91A18.3,18.3,0,0,1,13.43,29.2Z" transform="translate(-9.69 0.03)"/></svg>