<svg id="Layer_1" data-name="Layer 1" xmlns="http://www.w3.org/2000/svg" viewBox="0 0 37.62 56.57"><defs><style>.cls-1{fill:#fff;}.cls-2{fill:none;stroke:#000;stroke-miterlimit:10;}</style></defs><title>teste</title><path d="M28.51,56.53,12.74,29.2h.69a18.31,18.31,0,0,0,30.14,0h.69Z" transform="translate(-9.69 0.03)"/><path d="M43.57,29.2a18.31,18.31,0,0,1-30.14,0Z" transform="translate(-9.69 0.03)"/><path class="cls-1" d="M28.51,13a5.77,5.77,0,1,1-5.77,5.77A5.76,5.76,0,0,1,28.51,13Z" transform="translate(-9.69 0.03)"/><path d="M28.51,24.56a5.77,5.77,0,1,0-5.77-5.77A5.76,5.76,0,0,0,28.51,24.56ZM43.57,29.2H13.43a18.31,18.31,0,1,1,30.14,0Z" transform="translate(-9.69 0.03)"/><path class="cls-2" d="M13.43,29.2a18.31,18.31,0,1,1,30.14,0" transform="translate(-9.69 0.03)"/></svg>